<svg width="48" height="48" viewBox="0 0 48 48" fill="none" xmlns="http://www.w3.org/2000/svg">
<path d="M42.8 31.84L43.5 29.72L42.2 27.27L41.08 27L38.46 23.37C38.46 20.64 36.86 20.01 34.79 20.07V25L38.71 28.07L37.92 28.96L38.18 31.89L40.11 32.7M38.82 28.05L41.19 26.96M27.26 37.6C27.4 39.08 27.68 40.6 27.99 40.6H34.82C37.05 40.6 37.08 31.72 34.98 31.72H33.81M5.2 31.84L4.5 29.72L5.8 27.27L6.92 27L9.54 23.37C9.54 20.64 11.14 20.01 13.21 20.07V25L9.29 28.05M9.29 28.05L10.08 28.94L9.82 31.87L7.89 32.68M9.29 28.05L6.92 26.96M20.86 37.6C20.72 39.08 20.44 40.6 20.12 40.6H13.29C11.07 40.6 11.03 31.72 13.13 31.72H14.31M24 22.9C24.5729 22.9006 25.1269 23.1044 25.5636 23.4751C26.0004 23.8459 26.2914 24.3595 26.385 24.9247C26.4786 25.4898 26.3687 26.0698 26.0748 26.5616C25.7809 27.0533 25.3221 27.4248 24.78 27.61L25.84 32.73L24 33.24L22.14 32.73L23.2 27.61C22.6562 27.4243 22.1963 27.0511 21.9025 26.5573C21.6087 26.0635 21.5003 25.4812 21.5965 24.9147C21.6927 24.3482 21.9873 23.8345 22.4277 23.4653C22.8681 23.0962 23.4254 22.8958 24 22.9ZM29.93 15.85H26.93V15.09C26.9883 14.7342 27.1711 14.4108 27.4459 14.1774C27.7207 13.9439 28.0695 13.8158 28.43 13.8158C28.7905 13.8158 29.1393 13.9439 29.4141 14.1774C29.6889 14.4108 29.8717 14.7342 29.93 15.09V15.85ZM21.12 15.85H18.12V15.09C18.1783 14.7342 18.3611 14.4108 18.6359 14.1774C18.9107 13.9439 19.2595 13.8158 19.62 13.8158C19.9805 13.8158 20.3293 13.9439 20.6041 14.1774C20.8789 14.4108 21.0617 14.7342 21.12 15.09V15.85Z" stroke="white" stroke-linecap="round" stroke-linejoin="round"/>
<path d="M14.6892 19.5899H33.3092C33.7017 19.5899 34.0782 19.7459 34.3557 20.0234C34.6333 20.301 34.7892 20.6774 34.7892 21.0699V27.3099C34.7892 30.1716 33.6524 32.9161 31.6289 34.9396C29.6054 36.9631 26.8609 38.0999 23.9992 38.0999C21.1375 38.0999 18.3931 36.9631 16.3695 34.9396C14.346 32.9161 13.2092 30.1716 13.2092 27.3099V21.0699C13.2092 20.6774 13.3651 20.301 13.6427 20.0234C13.9203 19.7459 14.2967 19.5899 14.6892 19.5899ZM14.6892 19.5899H33.2992C33.4949 19.5899 33.6886 19.5514 33.8694 19.4765C34.0502 19.4016 34.2144 19.2919 34.3528 19.1535C34.4912 19.0152 34.6009 18.8509 34.6758 18.6701C34.7507 18.4894 34.7892 18.2956 34.7892 18.0999C34.7892 15.2383 33.6524 12.4938 31.6289 10.4703C29.6054 8.44674 26.8609 7.30994 23.9992 7.30994C22.5814 7.30863 21.1773 7.58675 19.867 8.12841C18.5567 8.67007 17.3661 9.46465 16.3631 10.4667C15.3601 11.4688 14.5644 12.6587 14.0215 13.9685C13.4786 15.2782 13.1992 16.6821 13.1992 18.0999C13.1992 18.4951 13.3562 18.8741 13.6356 19.1535C13.9151 19.433 14.294 19.5899 14.6892 19.5899Z" stroke="white" stroke-linecap="round" stroke-linejoin="round"/>
</svg>
