<svg width="19" height="22" viewBox="0 0 19 22" fill="none" xmlns="http://www.w3.org/2000/svg">
<path d="M18.0887 17.2978C16.2073 17.2766 14.3832 16.6471 12.889 15.5036C11.3948 14.36 10.3108 12.7636 9.7988 10.9531C9.28683 9.14247 9.37443 7.21483 10.0485 5.45815C10.7226 3.70146 11.947 2.21003 13.5387 1.20669C12.7344 0.997615 11.907 0.890846 11.076 0.888916C8.39432 0.888916 5.82252 1.95419 3.92632 3.85039C2.03012 5.74659 0.964844 8.31839 0.964844 11C0.964844 13.6817 2.03012 16.2535 3.92632 18.1497C5.82252 20.0459 8.39432 21.1111 11.076 21.1111C12.5951 21.1098 14.0939 20.7616 15.4581 20.0933C16.8224 19.4249 18.016 18.454 18.9482 17.2545C18.6626 17.2835 18.3758 17.298 18.0887 17.2978Z" fill="#131722"/>
</svg>
